<?xml version="1.0" encoding="iso-8859-1"?>
<!-- Generator: Adobe Illustrator 18.0.0, SVG Export Plug-In . SVG Version: 6.00 Build 0)  -->
<!DOCTYPE svg PUBLIC "-//W3C//DTD SVG 1.1//EN" "http://www.w3.org/Graphics/SVG/1.1/DTD/svg11.dtd">
<svg version="1.1" id="Capa_1" xmlns="http://www.w3.org/2000/svg" xmlns:xlink="http://www.w3.org/1999/xlink" x="0px" y="0px"
	 viewBox="0 0 385.609 385.609" style="enable-background:new 0 0 385.609 385.609;" xml:space="preserve">
<g>
	<g>
		<path d="M266.507,164.465c-2.931-19.204-16.856-34.487-34.651-38.031c-14.591-2.907-28.704,2.65-39.051,15.006
			c-10.347-12.354-24.459-17.907-39.051-15.006c-17.795,3.544-31.72,18.827-34.65,38.031c-2.375,15.569-0.23,55.966,70.824,94.725
			c0.913,0.497,1.897,0.733,2.868,0.733l0.001-0.001c0.007,0,0.013,0.001,0.02,0.001c0.971,0,1.956-0.236,2.868-0.733
			C266.737,220.431,268.883,180.034,266.507,164.465z M192.796,247.063c-61.579-34.561-63.794-67.916-61.831-80.787
			c2.171-14.23,12.271-25.512,25.131-28.072c12.192-2.428,23.696,3.64,31.571,16.645c1.717,2.834,5.405,3.742,8.24,2.023
			c0.86-0.52,1.539-1.225,2.025-2.029l0.009,0.006c7.875-13.005,19.382-19.072,31.57-16.645
			c12.861,2.561,22.961,13.842,25.132,28.072C256.608,179.146,254.374,212.503,192.796,247.063z"/>
		<path d="M271.158,0H114.45C99.698,0,87.695,12.004,87.695,26.758v332.096c0,14.753,12.003,26.756,26.755,26.756h156.708
			c14.753,0,26.756-12.003,26.756-26.756V26.758C297.914,12.004,285.912,0,271.158,0z M192.806,365.713
			c-5.31,0-9.629-4.319-9.629-9.629c0-5.31,4.319-9.629,9.629-9.629c5.309,0,9.628,4.319,9.628,9.629
			C202.434,361.394,198.115,365.713,192.806,365.713z M99.695,45.228h186.219v281.174H99.695V45.228z M114.45,12h156.708
			c8.136,0,14.756,6.62,14.756,14.758v6.47H99.695v-6.47C99.695,18.62,106.314,12,114.45,12z M99.695,358.853v-20.452h80.679
			c-5.557,3.919-9.197,10.382-9.197,17.683c0,7.204,3.543,13.593,8.976,17.525H114.45C106.314,373.609,99.695,366.99,99.695,358.853
			z M271.158,373.609h-65.7c5.432-3.933,8.976-10.321,8.976-17.525c0-7.301-3.64-13.764-9.196-17.683h80.677v20.452
			C285.914,366.99,279.295,373.609,271.158,373.609z"/>
	</g>
</g>
<g>
</g>
<g>
</g>
<g>
</g>
<g>
</g>
<g>
</g>
<g>
</g>
<g>
</g>
<g>
</g>
<g>
</g>
<g>
</g>
<g>
</g>
<g>
</g>
<g>
</g>
<g>
</g>
<g>
</g>
</svg>
